<?xml version="1.0" encoding="UTF-8" standalone="no"?>
<!-- Created with Inkscape (http://www.inkscape.org/) -->

<svg
   version="1.1"
   id="svg2"
   width="721.22668"
   height="307.56"
   viewBox="0 0 721.22668 307.56"
   sodipodi:docname="3698.eps"
   xmlns:inkscape="http://www.inkscape.org/namespaces/inkscape"
   xmlns:sodipodi="http://sodipodi.sourceforge.net/DTD/sodipodi-0.dtd"
   xmlns="http://www.w3.org/2000/svg"
   xmlns:svg="http://www.w3.org/2000/svg">
  <defs
     id="defs6" />
  <sodipodi:namedview
     id="namedview4"
     pagecolor="#ffffff"
     bordercolor="#000000"
     borderopacity="0.25"
     inkscape:showpageshadow="2"
     inkscape:pageopacity="0.0"
     inkscape:pagecheckerboard="0"
     inkscape:deskcolor="#d1d1d1" />
  <g
     id="g8"
     inkscape:groupmode="layer"
     inkscape:label="ink_ext_XXXXXX"
     transform="matrix(1.3333333,0,0,-1.3333333,0,307.56)">
    <g
       id="g10"
       transform="scale(0.1)">
      <path
         d="M 5409.17,0 H 0 V 2306.68 H 5409.17 V 0"
         style="fill:#ffffff;fill-opacity:1;fill-rule:nonzero;stroke:none"
         id="path12" />
      <path
         d="m 1725.99,500.57 c 22.56,12.328 44.12,30.758 65.65,54.328 0,1.063 1.04,1.063 1.04,2.082 1.02,0 1.02,1.008 2.03,2.032 1.05,0 1.05,1.008 2.06,2.047 0,0 0,1.031 1.03,2.062 -18.47,10.25 -36.93,14.367 -56.42,14.367 -19.49,0 -37.96,-4.117 -56.42,-14.367 -5.12,-2.062 -11.28,-6.141 -19.5,-13.312 -7.17,-6.168 -14.35,-13.329 -21.53,-22.559 -8.21,-8.191 -12.31,-16.422 -12.31,-24.629 -1.04,-7.18 2.04,-13.34 11.28,-18.43 6.15,-3.089 15.39,-4.121 26.66,-2.082 12.32,2.082 22.57,4.121 30.79,8.243 9.23,3.058 17.43,6.117 25.64,10.218 z m 201.06,335.239 c 1.03,4.121 4.11,7.171 8.2,8.211 4.11,1.039 7.18,0 10.26,-3.09 2.06,-3.039 3.08,-6.129 2.06,-10.219 -20.52,-63.59 -37.96,-111.77 -53.35,-147.652 -5.12,-11.258 -10.26,-21.52 -15.39,-32.778 -34.87,-91.269 -65.65,-172.25 -92.31,-244.031 -1.04,-3.059 -4.12,-6.148 -8.22,-7.148 -4.09,-1.043 -7.17,0 -10.25,3.046 -3.08,2.082 -4.1,6.161 -2.05,10.282 8.21,21.511 25.64,68.672 52.32,140.429 -49.26,-62.507 -103.62,-93.3 -162.09,-92.238 -19.49,1.02 -32.83,7.149 -38.97,19.449 -6.17,12.309 -7.18,25.641 -1.02,41.02 5.11,14.359 13.32,27.672 24.6,38.93 23.61,21.55 51.29,33.851 83.09,37.929 30.79,4.141 60.53,-1.008 88.24,-17.41 15.36,21.551 30.75,45.102 44.09,71.77 26.69,69.73 50.27,130.211 70.79,183.5 z M 1543.39,632.82 c -2.04,-4.058 -5.11,-5.109 -9.23,-5.109 -4.1,0 -7.18,1.051 -9.22,5.109 -2.06,4.121 -2.06,7.18 0,11.309 2.04,3.051 5.12,5.133 9.22,5.133 4.12,0 7.19,-2.082 9.23,-5.133 2.05,-4.129 2.05,-7.188 0,-11.309 z m 96.43,-75.84 c 6.16,4.079 10.25,4.079 14.37,-3.101 3.08,-6.129 2.04,-11.27 -3.08,-15.379 -34.87,-26.621 -66.69,-47.141 -93.34,-59.449 -27.71,-13.321 -47.19,-14.36 -58.47,-3.051 -7.21,6.109 -11.3,13.281 -13.35,22.551 -1.03,10.23 -2.04,18.429 -1.03,26.621 1.03,8.219 3.08,18.469 7.17,29.726 3.09,11.293 7.21,19.473 9.24,26.672 3.07,6.149 7.18,13.34 11.3,22.551 3.08,4.109 6.15,6.16 9.24,6.16 4.09,0 7.16,-2.051 9.2,-6.16 3.09,-3.07 3.09,-7.18 0,-11.25 -1.01,-3.101 -2.04,-6.172 -3.06,-8.211 -2.05,-3.09 -4.11,-7.172 -6.14,-13.34 -3.09,-5.129 -5.15,-11.3 -6.16,-16.422 -2.06,-5.089 -4.12,-10.238 -6.16,-16.398 -2.05,-7.172 -3.09,-12.262 -3.09,-17.41 0,-5.129 0,-10.262 0,-14.36 1.04,-5.121 2.05,-8.179 5.13,-11.289 3.08,-3.062 7.19,-5.089 12.31,-5.089 4.11,-1.071 9.23,0 16.41,3.058 6.15,2.031 12.32,5.141 16.42,7.16 5.13,2.051 11.29,6.16 18.47,11.309 8.21,6.101 12.3,8.18 13.33,9.211 16.41,10.238 33.86,22.551 51.29,35.89 z m -111.81,131.211 c 7.18,2.059 13.34,5.137 19.5,8.2 7.17,2.039 15.37,6.16 24.61,11.289 9.23,4.09 18.47,9.23 25.64,14.359 7.18,4.082 14.37,10.242 21.55,16.391 7.17,7.179 12.31,13.34 15.39,20.511 3.08,6.161 5.12,13.289 5.12,21.539 0,8.2 -3.08,15.36 -8.2,23.559 -8.22,12.32 -19.49,21.531 -32.84,29.731 -13.33,7.16 -28.71,12.308 -47.17,15.39 -17.45,2.031 -32.83,4.102 -46.18,5.121 -12.3,0 -27.69,1.028 -45.14,1.028 -56.41,-2.047 -110.77,-10.25 -165.14,-26.668 -53.34,-15.391 -101.55,-38.95 -143.61,-70.711 -32.83,-23.61 -56.43,-47.192 -68.74,-70.758 31.8,-14.344 66.68,-25.633 103.62,-32.832 57.43,-10.211 114.87,-12.27 172.33,-7.16 57.46,6.16 113.86,19.492 169.26,41.011 z m 126.18,120.989 c 5.12,-9.239 7.17,-19.489 7.17,-28.7 0,-10.281 -2.05,-19.48 -6.15,-26.679 -3.08,-8.192 -9.23,-16.379 -15.39,-23.571 -7.17,-8.191 -14.35,-14.359 -21.52,-20.5 -8.22,-5.128 -16.44,-11.3 -24.64,-15.378 -37.96,-22.551 -81.03,-38.973 -129.25,-51.25 -47.19,-12.321 -94.39,-19.493 -140.54,-20.532 -46.16,-1 -93.34,3.071 -139.51,10.25 -38.97,7.18 -75.91,18.469 -110.8,33.852 -5.11,-19.492 -1.02,-37.91 12.32,-53.313 13.33,-17.437 31.81,-29.757 55.41,-36.929 23.59,-7.192 50.25,-12.27 81.03,-15.371 2.05,0 5.12,1.031 8.21,1.031 4.09,0 7.17,-2.07 9.23,-6.129 1.01,-3.102 1.01,-7.199 -2.06,-10.289 -1.02,-5.094 -4.11,-7.172 -9.22,-7.172 -1.04,0 -2.05,0 -3.07,0 -1.04,0 -2.07,0 -2.07,0 -21.54,-3.051 -40,-13.328 -54.37,-28.699 -18.47,-18.442 -16.41,-32.789 5.14,-44.071 4.1,-2.05 7.17,-3.058 11.28,-4.089 30.78,-10.27 65.66,-11.289 105.65,-3.102 53.35,12.32 120.02,33.84 199.01,65.621 4.11,1.012 7.18,1.012 10.26,-2.039 2.06,-2.062 3.08,-6.16 3.08,-10.242 -1.02,-4.109 -3.08,-7.18 -7.18,-9.258 -57.45,-22.551 -112.84,-40.98 -166.18,-56.359 -57.46,-15.403 -103.6,-18.453 -141.56,-9.242 -47.18,13.332 -65.65,34.851 -54.38,64.589 8.21,18.45 21.54,32.813 42.06,44.063 -54.35,10.289 -92.31,29.75 -111.8,58.449 -14.37,21.52 -18.47,45.141 -10.27,70.75 C 979.199,711.77 928.945,761 902.262,822.48 c -2.043,7.18 0,12.321 6.156,15.411 6.156,4.078 11.289,2.039 13.324,-4.121 24.637,-57.418 71.821,-103.54 141.568,-138.379 12.32,23.55 31.8,46.109 58.49,67.629 49.24,40.011 106.68,69.718 172.33,88.171 65.64,19.489 132.33,27.668 199,25.637 85.15,-4.129 138.49,-26.668 161.06,-67.648 v 0"
         style="fill:#151110;fill-opacity:1;fill-rule:nonzero;stroke:none"
         id="path14" />
      <path
         d="m 4216.66,555.961 c 3.04,4.059 6.15,5.098 10.23,3.051 4.12,-1.024 6.15,-3.051 7.17,-7.172 1.07,-4.09 1.07,-7.18 -2.03,-11.262 -34.87,-43.058 -74.87,-68.707 -119.98,-77.906 -9.28,-2.051 -20.57,-2.051 -32.86,-1.031 -13.34,0 -25.66,2.039 -36.93,5.089 -12.32,3.11 -22.58,8.211 -32.81,15.379 -9.24,8.243 -15.41,17.461 -18.46,27.692 -1.01,3.097 0,6.16 2.03,9.258 2.03,3.062 4.12,5.101 8.21,5.101 25.64,-2.039 56.4,2.078 91.32,12.32 19.5,6.129 33.83,12.282 44.07,18.418 8.26,6.161 12.32,11.293 12.32,15.422 -1.02,5.102 -6.15,9.2 -15.37,14.34 -14.36,7.18 -27.7,10.25 -43.11,8.211 -14.33,-2.082 -28.69,-7.191 -42.03,-14.359 -13.34,-8.192 -25.64,-18.492 -37.95,-30.762 -12.32,-13.328 -22.59,-25.629 -31.81,-38.969 -8.19,-13.34 -16.43,-26.672 -22.6,-39.98 -1.02,-4.11 -3.05,-10.262 -7.17,-19.492 -3.05,-9.207 -6.15,-16.379 -8.18,-20.5 -2.05,-4.059 -4.14,-7.18 -9.22,-8.188 -4.14,0 -7.21,0 -10.29,3.059 -2.04,3.082 -3.07,6.148 -2.04,10.261 1.02,2.059 2.04,3.079 3.05,5.149 0,2.039 1.06,3.058 1.06,5.09 1.01,1.019 1.01,3.109 2.05,4.129 1.03,2.043 1.03,4.07 2.03,5.132 1.03,2.047 1.03,4.079 2.05,5.098 0,0 0,0 0,1.02 v 0 c 2.09,5.132 4.12,10.281 7.17,16.441 12.32,32.781 33.9,89.172 65.68,169.129 30.76,79.961 55.37,141.473 72.83,184.531 1.04,4.11 4.1,7.168 8.19,7.168 4.12,1.063 8.2,0 10.29,-2.027 3.05,-3.071 4.06,-6.16 2.03,-10.242 -16.41,-43.079 -51.31,-132.278 -104.61,-267.579 12.33,12.258 24.61,23.559 37.95,32.79 12.31,8.179 26.66,15.371 41.02,20.511 14.35,5.141 28.69,7.168 44.12,4.11 14.35,-2.082 28.71,-8.2 43.08,-18.469 8.19,-6.152 13.34,-13.332 14.36,-20.5 1.03,-6.184 0,-13.332 -5.12,-19.461 -4.14,-6.152 -10.29,-11.301 -16.44,-16.43 -6.16,-5.109 -13.34,-9.222 -21.53,-12.281 -35.88,-16.422 -71.81,-24.629 -107.71,-25.641 13.32,-11.257 31.79,-17.418 56.4,-19.5 20.51,-1.007 42.09,3.102 64.63,13.332 27.7,12.329 53.34,32.821 74.91,60.52 z m -249.28,6.129 c 2.03,2.07 4.1,3.082 6.15,3.082 3.11,1.019 5.14,0 7.17,-1.012 1.03,-1.039 3.1,-2.07 4.14,-4.14 0.99,-2.032 0.99,-4.059 0.99,-7.161 0,-2.031 -0.99,-4.097 -3.08,-6.148 -8.2,-9.223 -14.36,-15.383 -19.49,-20.473 -5.1,-5.148 -12.27,-10.277 -21.55,-18.468 -9.2,-7.2 -18.43,-12.329 -26.66,-16.411 -9.2,-3.078 -17.44,-4.121 -26.66,-3.078 -22.57,2.071 -34.9,19.489 -36.93,51.25 -27.7,-24.601 -66.66,-44.09 -116.93,-59.461 -8.21,-3.058 -17.46,-6.148 -27.69,-7.172 -9.26,-2.039 -19.5,-3.058 -31.81,-4.097 -11.28,0 -21.57,2.058 -30.78,6.14 -9.22,5.129 -15.37,11.289 -18.47,20.5 -4.11,6.168 -5.14,13.34 -2.04,20.52 2.04,7.168 5.14,13.328 9.22,19.488 4.12,7.16 9.25,13.313 15.4,18.43 7.18,6.141 13.34,11.293 19.49,15.359 5.1,4.133 11.26,7.192 17.42,11.301 13.33,7.18 28.74,14.371 45.14,18.473 16.42,5.109 33.88,6.129 52.3,6.129 18.48,-1.02 32.85,-6.129 45.16,-15.371 4.1,-3.071 5.11,-6.168 5.11,-10.25 -1.01,-5.149 -2.03,-8.2 -5.11,-9.2 -3.07,-2.082 -6.18,-2.082 -10.26,0 -10.25,8.192 -23.59,12.27 -38.98,12.27 -15.41,1.012 -30.78,-1.02 -44.1,-5.102 -14.36,-4.117 -26.68,-9.25 -38.98,-16.429 -16.44,-8.2 -29.77,-20.481 -41.03,-33.809 -14.38,-18.469 -10.27,-29.73 10.24,-33.84 21.57,-5.129 51.29,1.031 91.29,16.391 45.14,18.461 77.95,40.008 99.53,63.57 2.03,3.059 6.13,4.117 11.27,2.051 5.12,-2.051 7.19,-5.102 7.19,-10.25 -1.06,-6.16 -1.06,-12.313 -1.06,-17.422 0,-5.141 1.06,-11.27 2.07,-16.422 1.04,-6.156 3.07,-11.269 6.16,-13.348 3.08,-3.05 7.18,-5.082 11.27,-7.152 5.13,-1.027 11.3,0 19.53,4.102 14.35,7.191 32.83,22.558 55.37,47.16 z m -566.25,22.57 c 3.09,-7.172 10.27,-13.34 22.59,-16.422 20.5,18.461 28.69,34.852 25.64,46.153 -2.08,9.218 -9.26,11.25 -22.59,7.179 -13.34,-5.14 -21.53,-13.34 -25.64,-24.629 -1.03,-3.07 -1.03,-8.203 0,-12.281 z m 242.1,-34.851 c 3.06,3.05 7.18,4.07 10.23,3.05 4.12,-2.031 6.17,-4.097 7.22,-8.199 2.03,-3.051 1.02,-7.172 -2.08,-10.238 0,0 -4.08,-5.133 -11.29,-14.363 -8.19,-9.231 -14.35,-16.418 -19.49,-21.508 -5.1,-5.141 -12.28,-12.321 -21.53,-22.551 -9.22,-9.27 -17.45,-16.441 -24.62,-21.551 -7.18,-4.097 -15.38,-9.25 -24.63,-13.32 -8.2,-4.109 -16.4,-5.129 -23.57,-3.109 -7.18,2.082 -13.33,6.16 -18.47,13.351 -7.17,10.27 -6.16,23.57 4.12,38.981 2.03,3.058 6.15,8.199 12.27,15.359 7.21,7.187 13.37,13.348 17.45,19.461 5.14,6.156 7.18,12.316 7.18,16.437 0,3.051 -1.02,4.063 -3.06,6.141 -3.09,1.012 -7.18,1.012 -11.29,1.012 -4.12,0 -8.2,0 -12.31,0 -4.09,-1.012 -8.21,-1.012 -13.34,-2.051 -5.14,-1.039 -7.18,-1.039 -9.21,-1.039 -31.81,-3.063 -52.32,-4.063 -62.59,-3.063 -5.13,0 -10.27,1.032 -15.37,2.051 -8.24,-7.172 -17.45,-15.371 -27.72,-23.57 h -1.03 c -11.29,-8.192 -20.51,-14.36 -27.69,-18.469 -7.17,-5.101 -16.42,-9.211 -28.73,-13.34 -13.34,-4.07 -23.58,-5.09 -32.83,-2.043 -15.37,5.141 -24.63,19.492 -26.67,43.071 -28.7,-24.598 -67.68,-44.079 -116.93,-60.469 -6.16,-2.07 -12.31,-3.11 -18.47,-5.149 -6.15,-1.011 -12.31,-2.019 -20.51,-3.05 -7.17,-2.082 -14.35,-2.082 -21.53,-2.082 -7.21,1.062 -14.39,2.082 -20.55,3.113 -7.17,1.008 -13.32,4.058 -18.43,8.187 -5.13,4.082 -8.23,9.211 -10.27,15.371 -5.13,10.239 -3.07,21.54 4.11,33.829 7.18,12.281 15.38,21.55 24.59,29.75 9.26,8.179 19.49,15.363 30.78,20.511 13.34,8.192 28.75,14.34 45.14,19.45 16.43,5.14 33.84,6.152 52.32,5.14 18.47,-1.039 33.88,-6.172 46.15,-14.371 3.1,-3.051 4.12,-7.168 4.12,-11.301 -1.02,-4.066 -2.04,-7.148 -5.13,-9.218 -3.07,-1.008 -6.16,-1.008 -10.25,1.039 -10.27,7.179 -23.6,12.312 -38.97,12.312 -15.41,0 -30.78,-1.019 -44.12,-5.133 -14.35,-4.078 -26.67,-9.226 -38.98,-16.398 -16.42,-9.231 -29.76,-20.512 -41.06,-34.86 -14.34,-18.429 -10.24,-29.742 10.28,-33.82 21.52,-4.109 51.29,2.051 91.29,17.41 45.14,17.41 77.95,38.961 99.53,62.551 2.03,4.098 6.14,4.098 11.25,2.051 5.13,-1.012 7.18,-5.152 7.18,-9.211 0,-8.211 0,-15.383 0,-23.621 0,-8.18 2.07,-14.36 7.2,-19.442 5.11,-4.117 12.32,-6.168 21.53,-3.097 13.34,4.121 31.81,13.328 53.34,29.73 10.27,7.18 16.43,11.297 18.47,13.328 -12.32,6.153 -21.52,15.379 -26.67,26.661 -3.1,9.218 -3.1,19.492 1.03,29.73 5.13,11.289 12.3,19.512 21.52,26.66 9.26,6.16 19.5,11.27 29.77,13.352 11.29,2.027 20.5,0 28.71,-8.242 20.54,-18.45 15.4,-44.079 -13.34,-76.86 4.12,0 8.22,0 11.29,0 10.27,-1.039 24.62,0 44.12,3.059 19.49,2.019 34.86,3.101 44.11,3.101 17.45,0 27.69,-6.16 30.78,-17.461 3.07,-7.187 2.04,-15.371 -2.07,-23.57 -4.08,-8.199 -11.26,-18.461 -19.49,-28.719 -9.22,-10.218 -15.38,-16.379 -16.39,-19.468 -2.08,-2.051 -3.1,-3.071 -3.1,-4.09 -1.02,0 -1.02,-1.012 -2.04,-3.09 -1.02,-1.024 -1.02,-3.063 -2.04,-3.063 0,-1.019 0,-2.058 0,-3.089 0,-1.04 0,-2.04 1.02,-3.079 1.02,-1.011 2.04,-1.011 3.06,-2.019 1.02,-1.031 3.1,-1.031 5.14,-1.031 7.17,-1.02 18.47,5.089 33.84,17.41 16.43,13.328 38.97,36.91 67.72,70.758 z m -721.15,-16.418 c 18.47,0 36.94,2.058 55.41,4.097 5.1,9.223 6.16,18.473 2.04,27.684 -3.09,9.199 -11.3,16.398 -23.6,19.488 -13.34,4.078 -30.78,2.039 -50.28,-3.09 -10.24,-3.058 -20.51,-8.199 -31.76,-15.379 -11.29,-6.171 -16.43,-13.332 -14.39,-21.531 0,-2.051 1.02,-3.051 2.07,-5.129 2.04,-1.031 3.06,-2.043 6.16,-3.051 2.04,-1.031 4.09,-1.031 6.16,-2.058 3.06,-1.031 6.12,-1.031 9.22,-1.031 3.06,-1.051 6.15,-1.051 9.21,-1.051 3.09,0 6.16,0 9.25,0 4.08,0 7.18,0 9.22,0 2.08,0 4.12,0 6.15,0 3.1,0 5.14,0 5.14,1.051 z m 167.22,31.781 c 4.11,2.047 8.19,1.019 11.28,-1.012 4.09,-3.101 5.1,-6.172 5.1,-9.262 0,-3.058 -2.04,-6.136 -6.15,-9.226 -22.55,-10.223 -56.4,-18.422 -100.51,-25.613 0,-1 -1.02,-1 -3.1,-1 -1.02,0 -2.03,0 -2.03,0 0,0 0,-1.079 -1.03,-2.079 0,-1.019 -1.01,-1.019 -1.01,-2.05 -13.34,-21.52 -32.83,-35.879 -59.5,-43.059 -25.64,-6.141 -50.27,-3.07 -73.88,8.199 -22.54,12.309 -37.95,30.758 -46.15,56.41 -2.04,8.18 -3.09,17.399 -3.09,27.68 -1.02,10.211 0,19.442 1.05,26.629 1.02,8.223 4.09,17.441 7.18,28.699 3.06,11.293 6.15,19.5 9.21,25.641 2.05,6.16 5.14,15.391 10.27,26.672 2.05,3.07 2.05,6.16 3.07,7.168 22.59,54.332 49.25,108.679 78.98,161.961 3.09,4.129 6.16,6.172 10.27,6.172 3.09,0 6.16,-2.043 8.19,-6.172 3.1,-3.039 3.1,-7.16 1.06,-10.219 -26.7,-46.16 -49.25,-91.262 -68.74,-136.359 -1.02,-4.102 -3.09,-8.192 -6.16,-14.352 -3.09,-6.172 -5.14,-11.289 -7.17,-15.379 -2.08,-4.101 -4.12,-9.242 -6.16,-15.359 -3.1,-6.16 -5.13,-12.321 -7.18,-17.461 -1.02,-4.09 -3.09,-10.231 -5.13,-16.379 -2.04,-5.141 -3.09,-11.301 -4.12,-16.41 -1.02,-5.141 -2.04,-11.293 -3.05,-16.422 -1.02,-6.16 -1.02,-11.27 -1.02,-17.418 1.02,-5.152 1.02,-10.274 2.03,-15.363 2.04,-10.278 6.16,-19.5 11.29,-27.688 6.16,-8.199 13.34,-14.351 22.55,-19.5 8.24,-5.101 17.46,-8.18 26.67,-11.262 9.25,-2.078 19.49,-2.078 29.76,0 9.22,2.051 18.47,5.11 27.69,10.25 4.11,3.09 9.25,7.172 13.33,13.321 -30.75,-4.102 -57.45,-5.129 -79.99,-2.032 -28.75,3.063 -44.12,13.34 -46.17,28.711 -1.01,14.352 4.09,26.629 17.42,36.903 13.37,10.226 27.72,18.429 43.1,22.539 38.97,12.308 67.72,9.23 87.2,-7.18 15.38,-13.332 21.54,-31.781 17.42,-53.293 33.88,5.094 62.58,13.301 87.22,24.594 z m -279.02,-9.211 c 3.07,4.059 7.18,5.098 10.24,3.051 4.11,-1.024 6.15,-3.051 7.18,-7.172 2.08,-3.078 1.02,-7.18 -2.05,-11.262 -15.37,-18.457 -33.84,-35.879 -55.4,-50.226 -20.51,-15.411 -41.02,-24.622 -60.52,-26.672 -12.3,-1.008 -20.5,0 -27.67,4.09 -6.17,3.089 -10.28,9.242 -11.3,17.441 -1.02,8.199 -2.04,16.398 -1.02,23.57 1.02,8.199 3.06,17.457 6.15,28.707 -23.6,-22.558 -46.15,-41.019 -69.76,-55.379 -1.02,-1.007 -2.04,-2.039 -3.05,-3.058 -5.15,-3.051 -9.26,-5.129 -12.32,-7.18 -3.1,-1.012 -7.21,-4.101 -13.35,-7.18 -5.13,-3.05 -9.24,-5.132 -14.35,-6.152 -4.12,-1.019 -8.22,-3.051 -13.35,-4.09 -5.13,-1.008 -10.26,-2.07 -15.38,-1.008 -4.11,0 -8.21,1.008 -12.31,2.047 -36.94,14.352 -30.78,61.492 20.51,142.461 2.05,4.141 5.14,5.141 9.23,5.141 4.1,-1 7.18,-3.059 9.24,-6.149 2.06,-3.07 2.06,-6.152 0,-10.242 -11.29,-18.461 -21.55,-36.89 -29.75,-57.41 -1.03,-3.051 -2.06,-6.16 -3.07,-9.23 -1.04,-2.079 -2.06,-5.129 -3.08,-9.231 -1.04,-4.098 -2.05,-7.187 -2.05,-10.258 0,-3.05 0,-6.129 0,-9.211 -1.03,-4.121 0,-6.148 1.01,-8.199 2.06,-2.058 3.08,-3.09 5.13,-5.129 2.06,-2.031 4.11,-3.09 8.22,-2.031 4.1,0 8.2,1.012 12.3,2.031 25.64,7.18 49.25,19.489 70.78,37.93 22.58,18.461 45.14,42.027 68.74,68.699 3.06,4.078 7.18,4.078 11.29,2.039 5.1,-3.097 7.18,-6.16 6.16,-11.277 1.02,-2.051 1.02,-4.102 0,-5.102 -1.06,-5.148 -3.1,-12.332 -6.16,-21.558 -4.11,-10.262 -7.17,-19.473 -8.23,-27.672 -2.05,-8.192 -3.06,-15.379 -3.06,-22.539 2.04,-17.449 17.45,-17.449 46.15,-3.11 27.69,15.387 53.34,35.887 74.9,60.52 z m -535.49,69.68 c 1.04,-1.012 2.06,-3.071 4.11,-6.153 7.18,17.453 14.37,34.852 22.56,54.34 1.04,0 1.04,0 1.04,0 3.08,9.231 5.12,18.453 6.15,27.692 1.03,9.218 -2.06,16.41 -8.22,21.539 -6.14,5.101 -15.37,5.101 -26.65,1.019 -13.34,-6.148 -21.55,-14.348 -22.57,-27.687 -2.06,-13.332 0,-25.602 4.09,-36.911 5.14,-12.3 11.3,-23.57 19.49,-33.839 z m 333.39,178.398 c 0,0 0,-1.008 -1.03,-1.008 l -1.02,-2.082 c -12.31,-46.121 -35.89,-90.211 -69.76,-132.238 -66.66,-129.18 -122.07,-256.281 -168.22,-380.32 -2.05,-4.141 -5.15,-6.18 -9.24,-7.192 -4.1,-1.008 -7.18,0 -10.25,3.051 -3.08,2.059 -3.08,6.172 -2.06,10.289 40.01,106.57 86.17,214.242 140.54,323.93 -13.34,-11.25 -26.67,-21.528 -40,-30.75 -1.04,-1.02 -5.14,-4.117 -11.29,-9.207 -7.18,-5.141 -12.32,-8.192 -14.35,-10.274 -3.09,-1.019 -8.22,-4.078 -14.38,-8.218 -6.15,-4.059 -12.31,-8.18 -16.41,-9.192 -4.1,-2.066 -9.24,-5.156 -14.35,-7.187 -6.15,-2.032 -11.3,-4.11 -16.42,-5.141 -5.13,0 -10.27,0 -14.36,1.031 -7.18,1.047 -14.35,3.078 -22.58,8.219 -8.19,5.109 -14.35,9.23 -18.46,14.34 -4.11,4.101 -10.25,10.262 -18.46,18.449 -11.29,-30.73 -31.8,-84.07 -62.58,-162.98 -2.04,-4.129 -5.12,-6.149 -9.23,-7.168 -4.09,-1.051 -7.18,0 -10.26,3.039 -3.08,2.05 -3.08,6.179 -2.04,10.25 31.79,82.031 55.39,140.48 68.73,173.261 -40.01,44.079 -52.32,83.059 -36.94,115.848 5.13,13.332 15.39,22.551 28.72,29.723 14.37,7.179 27.71,8.25 42.06,3.097 6.15,-2.039 11.29,-5.129 15.39,-9.211 4.09,-4.117 7.17,-9.25 9.23,-14.359 2.07,-5.129 2.07,-11.301 2.07,-17.437 0,-6.172 -1.04,-11.274 -2.07,-17.43 -1.02,-5.121 -3.07,-11.281 -5.14,-17.453 v 0 c -9.21,-20.457 -18.44,-44.078 -28.69,-68.668 15.36,-18.461 29.73,-29.731 42.05,-35.879 4.1,-2.051 8.2,-3.082 12.29,-3.082 5.14,0 9.24,1.031 14.37,2.07 5.13,1.012 10.26,3.059 15.4,5.078 4.09,2.082 9.21,4.133 15.37,8.25 5.14,3.051 10.27,6.114 14.37,8.192 5.12,3.058 9.23,6.16 15.39,10.242 5.12,5.129 9.23,8.199 12.3,10.269 3.07,2.039 7.19,5.09 12.3,9.231 2.07,2.027 4.11,3.047 5.15,4.066 23.59,19.5 45.13,39.992 63.6,61.532 21.53,43.058 45.14,86.101 68.73,129.179 v 0 c 1.01,2.051 2.04,4.09 3.06,5.11 3.09,3.082 6.15,5.121 9.25,5.121 4.12,0 7.17,-2.039 9.22,-5.121 2.07,-4.09 3.09,-7.188 0,-11.27 v 0"
         style="fill:#151110;fill-opacity:1;fill-rule:nonzero;stroke:none"
         id="path16" />
      <path
         d="m 2326.09,1198.76 c -5.42,0 -9.95,4.22 -10.24,9.67 l -8.7,159.46 h -96.38 L 2204,1208.55 c -0.25,-5.63 -4.77,-10.45 -10.67,-9.79 -5.65,0.23 -10.05,5.01 -9.81,10.68 l 7.17,169.13 c 0.24,5.5 4.76,9.82 10.24,9.82 h 115.93 c 5.44,0 9.92,-4.25 10.23,-9.68 l 9.23,-169.15 c 0.32,-5.67 -4.03,-10.49 -9.67,-10.8 -0.2,0 -0.39,0 -0.56,0 z m -139.51,-155.85 c -0.15,0 -0.32,0 -0.47,0 -5.66,0.26 -10.04,5.05 -9.77,10.71 l 6.16,134.32 c 0.24,5.67 4.8,10.33 10.71,9.77 5.65,-0.27 10.03,-5.06 9.76,-10.71 l -6.15,-134.33 c -0.25,-5.48 -4.79,-9.76 -10.24,-9.76 z m 148.73,-1.03 c -5.37,0 -9.89,4.19 -10.23,9.64 l -8.21,135.33 c -0.34,5.66 3.96,10.5 9.62,10.86 5.63,-0.08 10.52,-3.95 10.85,-9.63 l 8.22,-135.33 c 0.33,-5.65 -3.96,-10.51 -9.62,-10.87 -0.21,0 -0.42,0 -0.63,0 z m 13.33,-239.892 c -5.39,0 -9.9,4.231 -10.22,9.672 l -12.32,216.31 c -0.31,5.66 4.01,10.52 9.66,10.82 5.11,0.49 10.49,-3.96 10.82,-9.66 l 12.32,-216.31 c 0.3,-5.66 -4.02,-10.511 -9.67,-10.82 -0.19,-0.012 -0.38,-0.012 -0.59,-0.012 z M 2171.19,632.852 c -0.13,0 -0.25,0 -0.39,0.007 -5.64,0.211 -10.06,4.961 -9.85,10.629 l 14.37,386.482 c 0.19,5.64 3.97,10.82 10.63,9.84 5.65,-0.21 10.06,-4.96 9.85,-10.62 l -14.37,-386.491 c -0.2,-5.519 -4.76,-9.847 -10.24,-9.847"
         style="fill:#151110;fill-opacity:1;fill-rule:nonzero;stroke:none"
         id="path18" />
      <path
         d="m 2245.05,1218.22 h 35.9 v 117.9 c 0,9.76 -7.65,17.41 -17.43,17.41 -10.54,0 -18.47,-7.5 -18.47,-17.41 z m 46.15,-20.51 h -56.4 c -5.67,0 -10.26,4.58 -10.26,10.24 v 128.17 c 0,21.27 17.11,37.92 38.98,37.92 20.91,0 37.94,-17.01 37.94,-37.92 v -128.17 c 0,-5.66 -4.58,-10.24 -10.26,-10.24"
         style="fill:#151110;fill-opacity:1;fill-rule:nonzero;stroke:none"
         id="path20" />
      <path
         d="m 2317.87,1367.89 h -117.95 c -11.71,0 -20.52,8.36 -20.52,19.49 0,11.88 8.62,20.51 20.52,20.51 h 117.95 c 11.31,0 20.53,-9.19 20.53,-20.51 0,-10.57 -9.41,-19.49 -20.53,-19.49"
         style="fill:#151110;fill-opacity:1;fill-rule:nonzero;stroke:none"
         id="path22" />
      <path
         d="M 2337.38,1177.2 H 2179.4 c -10.75,0 -20.53,9.77 -20.53,20.51 0,11.31 9.23,20.51 20.53,20.51 h 157.98 c 11.31,0 20.51,-9.2 20.51,-20.51 0,-10.74 -9.78,-20.51 -20.51,-20.51"
         style="fill:#151110;fill-opacity:1;fill-rule:nonzero;stroke:none"
         id="path24" />
      <path
         d="m 2198.9,1388.39 c -4.52,0 -8.66,3 -9.89,7.54 -5.19,19.02 -3.02,56.88 37.94,78.42 4.94,2.58 11.22,0.73 13.84,-4.3 2.65,-5.01 0.71,-11.22 -4.31,-13.84 -36.27,-19.08 -28.68,-51.25 -27.7,-54.85 1.49,-5.47 -1.72,-11.1 -7.19,-12.59 -0.9,-0.25 -1.82,-0.38 -2.69,-0.38"
         style="fill:#151110;fill-opacity:1;fill-rule:nonzero;stroke:none"
         id="path26" />
      <path
         d="m 2230.69,1455.02 c -4.18,0 -8.09,2.62 -9.62,6.78 -1.91,5.31 0.83,11.18 6.14,13.12 0.1,0.06 12.25,4.57 21.55,14.72 3.85,4.18 10.32,4.43 14.49,0.64 4.17,-3.84 4.46,-10.32 0.64,-14.51 -12.85,-14 -29.06,-19.89 -29.74,-20.14 -1.13,-0.41 -2.31,-0.61 -3.46,-0.61"
         style="fill:#151110;fill-opacity:1;fill-rule:nonzero;stroke:none"
         id="path28" />
      <path
         d="m 2283.01,1454 c -1.55,0 -3.12,0.36 -4.6,1.09 -2.05,1.05 -20.49,10.41 -29.73,20.79 -3.77,4.24 -3.4,10.73 0.83,14.49 4.21,3.76 10.7,3.38 14.47,-0.83 5.64,-6.34 19.27,-13.94 23.62,-16.12 5.07,-2.54 7.11,-8.68 4.57,-13.75 -1.79,-3.59 -5.41,-5.67 -9.16,-5.67"
         style="fill:#151110;fill-opacity:1;fill-rule:nonzero;stroke:none"
         id="path30" />
      <path
         d="m 2230.73,1454.02 c -3.84,0 -7.51,2.15 -9.27,5.84 -2.43,5.08 -0.31,11.19 4.78,13.63 1.36,0.63 32.83,15.49 58.78,0.69 4.92,-2.82 6.63,-9.08 3.81,-13.99 -2.85,-4.87 -9.11,-6.6 -13.98,-3.81 -16.55,9.44 -39.49,-1.28 -39.74,-1.38 -1.41,-0.66 -2.92,-0.98 -4.38,-0.98"
         style="fill:#151110;fill-opacity:1;fill-rule:nonzero;stroke:none"
         id="path32" />
      <path
         d="m 2315.85,1388.39 c -0.69,0 -1.37,0.07 -2.08,0.22 -5.54,1.13 -9.12,6.56 -7.98,12.1 7.5,36.57 -27.87,54.64 -29.37,55.37 -5.05,2.52 -7.15,8.66 -4.65,13.72 2.5,5.09 8.55,7.22 13.68,4.7 17.74,-8.66 48.99,-36.08 40.43,-77.91 -1.01,-4.86 -5.27,-8.2 -10.03,-8.2"
         style="fill:#151110;fill-opacity:1;fill-rule:nonzero;stroke:none"
         id="path34" />
      <path
         d="m 2256.32,1487.83 c -5.67,0 -12.29,5.62 -12.29,11.3 0,5.65 6.62,11.26 12.29,11.26 5.67,0 12.31,-5.61 12.31,-11.26 0,-5.68 -6.64,-11.3 -12.31,-11.3"
         style="fill:#151110;fill-opacity:1;fill-rule:nonzero;stroke:none"
         id="path36" />
      <path
         d="m 2256.32,1501.17 c -5.85,0 -7.17,-6.07 -7.17,-8.2 0,-2.68 1.76,-8.22 7.17,-8.22 5.86,0 7.18,6.07 7.18,8.22 0,2.13 -1.32,8.2 -7.18,8.2 z m 0,-20.51 c -6.29,0 -13.33,5.06 -13.33,12.31 0,7.24 7.04,12.29 13.33,12.29 6.3,0 13.34,-5.05 13.34,-12.29 0,-7.25 -7.04,-12.31 -13.34,-12.31"
         style="fill:#151110;fill-opacity:1;fill-rule:nonzero;stroke:none"
         id="path38" />
      <path
         d="m 2256.32,1494 c -2.78,0 -6.14,-3.66 -6.14,-8.21 0,-4.54 3.36,-8.2 6.14,-8.2 3.4,0 7.18,3.36 7.18,8.2 0,4.84 -3.78,8.21 -7.18,8.21 z m 0,-20.51 c -7.47,0 -13.33,5.4 -13.33,12.3 0,6.89 5.86,12.32 13.33,12.32 8.06,0 14.38,-5.43 14.38,-12.32 0,-6.9 -6.32,-12.3 -14.38,-12.3"
         style="fill:#151110;fill-opacity:1;fill-rule:nonzero;stroke:none"
         id="path40" />
      <path
         d="m 2256.32,1490.89 c -5.67,0 -10.25,4.62 -10.25,10.28 v 7.17 c 0,5.67 4.58,10.26 10.25,10.26 5.67,0 10.26,-4.59 10.26,-10.26 v -7.17 c 0,-5.66 -4.59,-10.28 -10.26,-10.28"
         style="fill:#151110;fill-opacity:1;fill-rule:nonzero;stroke:none"
         id="path42" />
      <path
         d="m 2170.17,1041.88 175.41,-2.04 c 0.49,0 1.03,0.53 1.03,1.03 z m 175.41,-22.56 h -175.41 c -11.51,0 -20.51,9.47 -20.51,21.55 0,12.06 9,21.52 20.51,21.52 h 175.41 c 11.86,0 21.54,-9.67 21.54,-21.52 0,-11.87 -9.68,-21.55 -21.54,-21.55"
         style="fill:#151110;fill-opacity:1;fill-rule:nonzero;stroke:none"
         id="path44" />
      <path
         d="m 2159.91,820.449 c -1.53,0 -2.05,-0.527 -2.05,-2.058 0,-1.52 0.52,-2.051 2.05,-2.051 h 196.96 c 0.6,0 2.04,0.719 2.04,2.051 0,1.347 -1.44,2.058 -2.04,2.058 z m 196.96,-24.621 h -196.96 c -12.85,0 -22.57,9.711 -22.57,22.563 0,12.871 9.72,22.578 22.57,22.578 h 196.96 c 12.23,0 22.55,-10.34 22.55,-22.578 0,-12.211 -10.32,-22.563 -22.55,-22.563"
         style="fill:#151110;fill-opacity:1;fill-rule:nonzero;stroke:none"
         id="path46" />
      <path
         d="m 2516.89,1202.85 c -2.55,0 -5.09,0.94 -7.08,2.82 -2.52,2.41 -61.7,59.77 -54.09,139.5 5.72,59.72 47.21,114.77 123.34,163.62 130.5,83.34 154.39,119.62 156.36,165.04 0.24,5.68 4.58,10.33 10.68,9.82 5.66,-0.25 10.04,-5.02 9.79,-10.7 -2.26,-52.63 -27.65,-93.24 -165.77,-181.44 -70.54,-45.26 -108.89,-95.15 -113.97,-148.28 -6.69,-69.93 47.26,-122.18 47.8,-122.71 4.11,-3.9 4.26,-10.4 0.36,-14.5 -2.03,-2.11 -4.72,-3.17 -7.42,-3.17"
         style="fill:#151110;fill-opacity:1;fill-rule:nonzero;stroke:none"
         id="path48" />
      <path
         d="m 2974.41,1202.85 c -2.71,0 -5.42,1.06 -7.42,3.17 -3.9,4.08 -3.76,10.57 0.31,14.48 0.57,0.52 54.61,53.2 47.83,122.91 -5.15,53.08 -43.5,102.9 -113.96,148.1 -138.15,88.22 -163.53,128.81 -165.75,181.44 -0.25,5.68 4.16,10.46 9.79,10.7 6.02,0.51 10.43,-4.14 10.68,-9.82 1.94,-45.42 25.81,-81.7 156.34,-165.04 76.12,-48.83 117.63,-103.88 123.32,-163.62 7.63,-79.73 -51.57,-137.09 -54.08,-139.5 -1.99,-1.88 -4.53,-2.82 -7.06,-2.82"
         style="fill:#151110;fill-opacity:1;fill-rule:nonzero;stroke:none"
         id="path50" />
      <path
         d="m 2745.66,1719.52 c -10.37,0 -18.49,6.75 -18.49,15.39 0,8.77 7.95,15.37 18.49,15.37 9.94,0 17.43,-6.6 17.43,-15.37 0,-8.77 -7.49,-15.39 -17.43,-15.39"
         style="fill:#151110;fill-opacity:1;fill-rule:nonzero;stroke:none"
         id="path52" />
      <path
         d="m 2746.67,1693.89 c -12.27,0 -21.55,7.49 -21.55,17.43 0,9.95 9.28,17.43 21.55,17.43 11.29,0 20.49,-7.82 20.49,-17.43 0,-9.61 -9.2,-17.43 -20.49,-17.43"
         style="fill:#151110;fill-opacity:1;fill-rule:nonzero;stroke:none"
         id="path54" />
      <path
         d="m 2746.67,1665.19 c -12.65,0 -22.56,8.56 -22.56,19.5 0,10.33 9.91,18.45 22.56,18.45 13.01,0 23.6,-8.3 23.6,-18.45 0,-10.94 -10.36,-19.5 -23.6,-19.5"
         style="fill:#151110;fill-opacity:1;fill-rule:nonzero;stroke:none"
         id="path56" />
      <path
         d="m 2745.66,1732.85 c -5.66,0 -10.25,4.59 -10.25,10.26 v 25.62 c 0,5.68 4.59,10.27 10.25,10.27 5.66,0 10.25,-4.59 10.25,-10.27 v -25.62 c 0,-5.67 -4.59,-10.26 -10.25,-10.26"
         style="fill:#151110;fill-opacity:1;fill-rule:nonzero;stroke:none"
         id="path58" />
      <path
         d="m 2778.47,1856.9 c -2.08,0 -4.2,0.64 -5.98,1.93 -3.66,2.62 -5.16,7.31 -3.74,11.56 l 5.81,17.43 -15.38,10.99 c -3.62,2.58 -5.15,7.22 -3.8,11.46 1.36,4.24 5.31,7.12 9.77,7.12 h 18.98 l 5.01,17.22 c 1.27,4.3 5.17,7.3 9.65,7.38 4.27,-0.06 8.52,-2.73 9.92,-7.01 l 5.87,-17.59 h 19.27 c 4.45,0 8.41,-2.88 9.77,-7.12 1.36,-4.24 -0.18,-8.88 -3.8,-11.46 l -15.38,-10.99 5.8,-17.43 c 1.42,-4.21 -0.06,-8.84 -3.64,-11.49 -3.6,-2.62 -8.44,-2.67 -12.04,-0.09 l -15.43,11.03 -14.5,-10.87 c -1.82,-1.38 -3.99,-2.07 -6.16,-2.07"
         style="fill:#151110;fill-opacity:1;fill-rule:nonzero;stroke:none"
         id="path60" />
      <path
         d="m 2742.56,1784.13 c 0.94,0 1.88,-0.11 2.83,-0.4 6.1,-1.75 13.3,-2.68 20.78,-2.68 20.45,0 40.11,7.96 55.17,21.3 -5.92,-1.19 -12.02,-1.83 -18.23,-1.83 -49.78,0 -90.29,40.47 -90.29,90.22 0,17.86 5.19,34.82 14.59,49.22 -27.08,-13.97 -45.38,-42.24 -45.38,-74.85 0,-34.97 21.14,-65.39 53.87,-77.54 1.98,-0.71 3.6,-2.02 4.76,-3.62 0.62,0.11 1.25,0.18 1.9,0.18 z m 23.61,-23.59 c -9.36,0 -18.51,1.2 -26.44,3.49 -2.31,0.64 -4.2,2.06 -5.51,3.86 -1.74,-0.35 -3.65,-0.2 -5.47,0.49 -40.84,15.11 -67.23,53.1 -67.23,96.73 0,56.35 43.98,102.27 100.11,104.56 4.4,1.08 8.86,-2.8 10.24,-7.26 1.35,-4.5 -0.49,-9.31 -4.49,-11.73 -21.32,-12.97 -34.05,-35.39 -34.05,-59.94 0,-38.44 31.29,-69.71 69.78,-69.71 16.03,0 31.16,5.31 42.6,14.99 3.61,3.12 8.85,3.28 12.69,0.43 3.82,-2.83 5.21,-7.89 3.37,-12.27 -16.17,-38.06 -54.58,-63.64 -95.6,-63.64"
         style="fill:#151110;fill-opacity:1;fill-rule:nonzero;stroke:none"
         id="path62" />
      <path
         d="m 2583.55,1202.85 c -3.13,0 -6.23,1.43 -8.25,4.15 -1.13,1.52 -111.33,154.71 49.59,300.74 92.73,83.8 109.51,120.24 110.52,165.89 0.12,5.57 4.69,10.03 10.25,10.03 0.07,0 0.14,0 0.23,0 5.66,-0.12 10.15,-4.83 10.02,-10.48 -1.14,-51.64 -18.96,-91.83 -117.25,-180.64 -146.93,-133.33 -51.01,-267.72 -46.86,-273.36 3.34,-4.56 2.37,-10.98 -2.17,-14.33 -1.85,-1.36 -3.97,-2 -6.08,-2"
         style="fill:#151110;fill-opacity:1;fill-rule:nonzero;stroke:none"
         id="path64" />
      <path
         d="m 2664.6,1202.85 c -4.18,0 -8.11,2.57 -9.62,6.74 -2.26,6.11 -54.04,151.6 25.27,295.48 45.6,84.25 54.13,121.49 55.16,168.56 0.12,5.57 4.69,10.03 10.25,10.03 0.07,0 0.14,0 0.23,0 5.66,-0.12 10.15,-4.83 10.02,-10.48 -1.11,-50.42 -10.02,-89.89 -57.66,-177.91 -74.88,-135.87 -24.53,-277.23 -24.03,-278.65 1.96,-5.32 -0.77,-11.2 -6.09,-13.14 -1.17,-0.43 -2.35,-0.63 -3.53,-0.63"
         style="fill:#151110;fill-opacity:1;fill-rule:nonzero;stroke:none"
         id="path66" />
      <path
         d="m 2907.73,1202.85 c -2.11,0 -4.24,0.64 -6.08,2 -4.54,3.35 -5.53,9.77 -2.16,14.33 4.14,5.64 100.06,140.03 -46.89,273.36 -98.29,88.83 -116.11,129.02 -117.19,180.65 -0.14,5.64 4.38,10.35 10.03,10.47 5.39,0.44 10.34,-4.38 10.47,-10.05 0.97,-45.61 17.73,-82.07 110.46,-165.87 160.93,-146.03 50.73,-299.22 49.61,-300.74 -2.02,-2.72 -5.12,-4.15 -8.25,-4.15"
         style="fill:#151110;fill-opacity:1;fill-rule:nonzero;stroke:none"
         id="path68" />
      <path
         d="m 2826.67,1202.85 c -1.18,0 -2.39,0.2 -3.57,0.64 -5.31,1.96 -8.01,7.88 -6.03,13.19 0.52,1.41 51.68,143.01 -23.97,278.47 -47.73,88.15 -56.64,127.63 -57.69,178.04 -0.14,5.64 4.38,10.35 10.03,10.47 5.39,0.44 10.34,-4.38 10.47,-10.05 0.98,-47.03 9.51,-84.25 55.16,-168.61 80.34,-143.81 27.5,-289.37 25.21,-295.49 -1.55,-4.12 -5.45,-6.66 -9.61,-6.66"
         style="fill:#151110;fill-opacity:1;fill-rule:nonzero;stroke:none"
         id="path70" />
      <path
         d="m 3015.42,1162.85 c -5.67,0 -10.25,4.59 -10.25,10.26 0,15.82 -12.88,28.69 -28.73,28.69 h -454.42 c -15.85,0 -28.73,-12.87 -28.73,-28.69 0,-5.67 -4.58,-10.26 -10.25,-10.26 -5.66,0 -10.26,4.59 -10.26,10.26 0,27.14 22.1,49.2 49.24,49.2 h 454.42 c 27.13,0 49.23,-22.06 49.23,-49.2 0,-5.67 -4.59,-10.26 -10.25,-10.26"
         style="fill:#151110;fill-opacity:1;fill-rule:nonzero;stroke:none"
         id="path72" />
      <path
         d="m 3040.04,722.02 c -5.42,0 -9.94,4.23 -10.24,9.691 l -24.62,442.879 c -0.33,5.64 4.01,10.48 9.67,10.8 5.99,0.93 10.48,-4.02 10.8,-9.68 l 24.63,-442.858 c 0.32,-5.672 -4.02,-10.493 -9.68,-10.813 -0.19,-0.019 -0.38,-0.019 -0.56,-0.019"
         style="fill:#151110;fill-opacity:1;fill-rule:nonzero;stroke:none"
         id="path74" />
      <path
         d="m 2467.65,823.512 c -0.14,0 -0.3,0 -0.45,0.019 -5.68,0.25 -10.05,5.047 -9.79,10.699 l 15.39,341.39 c 0.25,5.5 4.79,9.8 10.24,9.8 0.14,0 0.29,0 0.46,-0.03 5.66,-0.25 10.04,-5.04 9.78,-10.7 l -15.39,-341.381 c -0.25,-5.5 -4.79,-9.797 -10.24,-9.797"
         style="fill:#151110;fill-opacity:1;fill-rule:nonzero;stroke:none"
         id="path76" />
      <path
         d="m 2549.71,876.801 c -5.67,0 -10.26,4.609 -10.26,10.277 V 966 c 0.1,6.199 4.59,148.1 214,199.64 1.6,0.38 3.3,0.38 4.94,-0.01 2.04,-0.52 203.34,-53.02 213.93,-224.61 0.35,-5.629 -3.96,-10.508 -9.61,-10.848 -5.62,-0.184 -10.51,3.957 -10.86,9.59 -9.04,146.868 -174.19,199.048 -196.07,205.338 -190.82,-48.07 -195.71,-173.92 -195.81,-179.272 v -78.75 c 0,-5.668 -4.6,-10.277 -10.26,-10.277"
         style="fill:#151110;fill-opacity:1;fill-rule:nonzero;stroke:none"
         id="path78" />
      <path
         d="m 3301.64,1195.66 c -5.42,0 -9.94,4.25 -10.24,9.7 l -8.72,159.44 h -97.41 l -6.76,-159.32 c -0.23,-5.64 -4.33,-10.19 -10.69,-9.8 -5.64,0.22 -10.04,5.02 -9.79,10.67 l 7.18,169.15 c 0.23,5.49 4.75,9.82 10.23,9.82 h 116.94 c 5.45,0 9.94,-4.26 10.24,-9.69 l 9.26,-169.14 c 0.31,-5.68 -4.04,-10.49 -9.68,-10.81 -0.2,-0.02 -0.38,-0.02 -0.56,-0.02 z m 8.17,-155.82 c -5.39,0 -9.93,4.24 -10.22,9.71 l -7.17,135.32 c -0.3,5.65 4.04,10.48 9.69,10.77 5.61,0.72 10.5,-4.03 10.78,-9.69 l 7.18,-135.32 c 0.3,-5.65 -4.05,-10.48 -9.69,-10.78 -0.2,-0.01 -0.37,-0.01 -0.57,-0.01 z m -147.7,0 c -0.12,0 -0.25,0 -0.39,0.01 -5.66,0.21 -10.07,4.96 -9.84,10.62 l 5.13,135.33 c 0.22,5.64 5.03,10.48 10.63,9.84 5.66,-0.21 10.07,-4.96 9.85,-10.62 l -5.14,-135.32 c -0.21,-5.52 -4.75,-9.86 -10.24,-9.86 z m 161.04,-239.899 c -5.38,0 -9.9,4.219 -10.23,9.68 l -12.3,216.319 c -0.32,5.65 4.01,10.49 9.65,10.81 4.82,0.68 10.49,-3.98 10.81,-9.65 l 12.33,-216.319 c 0.32,-5.652 -4.02,-10.5 -9.66,-10.812 -0.2,-0.028 -0.39,-0.028 -0.6,-0.028 z m -174.37,-57.41 c -0.14,0 -0.28,0 -0.43,0.008 -5.66,0.231 -10.05,5 -9.81,10.66 l 11.29,273.741 c 0.23,5.65 4.71,10.54 10.67,9.81 5.66,-0.22 10.06,-5 9.81,-10.65 l -11.29,-273.741 c -0.23,-5.488 -4.77,-9.828 -10.24,-9.828"
         style="fill:#151110;fill-opacity:1;fill-rule:nonzero;stroke:none"
         id="path80" />
      <path
         d="m 3220.6,1216.16 h 35.88 v 116.87 c 0,9.67 -8.79,18.45 -18.44,18.45 -9.46,0 -17.44,-8.43 -17.44,-18.45 z m 46.14,-20.5 h -56.39 c -5.67,0 -10.26,4.59 -10.26,10.26 v 127.11 c 0,21.49 17.02,38.98 37.95,38.98 21.12,0 38.95,-17.85 38.95,-38.98 v -127.11 c 0,-5.67 -4.58,-10.26 -10.25,-10.26"
         style="fill:#151110;fill-opacity:1;fill-rule:nonzero;stroke:none"
         id="path82" />
      <path
         d="m 3174.42,1385.32 h 117.96 v -10.26 l 0.08,10.26 z m 117.96,-20.52 h -117.96 c -10.72,0 -20.48,9.79 -20.48,20.52 0,10.73 9.76,20.5 20.48,20.5 h 117.96 c 11.31,0 20.53,-9.18 20.53,-20.5 0,-11.32 -9.22,-20.52 -20.53,-20.52"
         style="fill:#151110;fill-opacity:1;fill-rule:nonzero;stroke:none"
         id="path84" />
      <path
         d="m 3312.4,1195.71 -157.46,-0.05 h 156.94 c 0.36,0 0.52,0.05 0.52,0.05 z m -0.52,-20.56 h -156.94 c -11.87,0 -20.5,8.62 -20.5,20.51 0,11.31 9.2,20.5 20.5,20.5 h 156.94 c 11.31,0 20.52,-9.19 20.52,-20.5 0,-11.89 -8.64,-20.51 -20.52,-20.51"
         style="fill:#151110;fill-opacity:1;fill-rule:nonzero;stroke:none"
         id="path86" />
      <path
         d="m 3174.42,1385.32 c -4.6,0 -8.79,3.11 -9.95,7.77 -3.03,12.16 -9.24,53.79 37.92,79.18 5.04,2.75 11.22,0.81 13.89,-4.19 2.69,-4.97 0.81,-11.19 -4.18,-13.87 -31.99,-17.24 -31.1,-42.58 -27.72,-56.16 1.36,-5.51 -1.98,-11.05 -7.48,-12.43 -0.83,-0.19 -1.67,-0.3 -2.48,-0.3"
         style="fill:#151110;fill-opacity:1;fill-rule:nonzero;stroke:none"
         id="path88" />
      <path
         d="m 3206.23,1451.97 c -4.12,0 -8,2.49 -9.57,6.57 -2.02,5.27 0.6,11.19 5.86,13.23 0.39,0.16 11.57,4.75 21.83,15.85 3.85,4.2 10.33,4.43 14.47,0.58 4.17,-3.84 4.44,-10.32 0.59,-14.47 -13.78,-14.94 -28.87,-20.84 -29.51,-21.09 -1.21,-0.45 -2.44,-0.67 -3.67,-0.67"
         style="fill:#151110;fill-opacity:1;fill-rule:nonzero;stroke:none"
         id="path90" />
      <path
         d="m 3258.53,1451.97 c -1.54,0 -3.11,0.34 -4.56,1.06 -2.08,1.04 -20.51,10.42 -29.76,20.84 -3.77,4.23 -3.38,10.7 0.86,14.47 4.22,3.77 10.72,3.39 14.47,-0.86 5.62,-6.32 18.93,-13.75 23.59,-16.1 5.05,-2.53 7.1,-8.68 4.58,-13.74 -1.8,-3.59 -5.42,-5.67 -9.18,-5.67"
         style="fill:#151110;fill-opacity:1;fill-rule:nonzero;stroke:none"
         id="path92" />
      <path
         d="m 3206.23,1451.97 c -3.82,0 -7.48,2.14 -9.24,5.81 -2.46,5.1 -0.32,11.23 4.79,13.67 1.35,0.66 32.86,15.49 58.78,0.69 4.91,-2.8 6.64,-9.05 3.82,-13.98 -2.78,-4.91 -9.03,-6.67 -13.98,-3.82 -16.38,9.36 -39.5,-1.25 -39.72,-1.35 -1.45,-0.69 -2.96,-1.02 -4.45,-1.02"
         style="fill:#151110;fill-opacity:1;fill-rule:nonzero;stroke:none"
         id="path94" />
      <path
         d="m 3291.38,1386.33 c -0.7,0 -1.41,0.07 -2.13,0.25 -5.54,1.15 -9.09,6.59 -7.91,12.13 7.5,35.86 -28.97,54.11 -29.34,54.29 -5.09,2.48 -7.2,8.62 -4.72,13.72 2.47,5.09 8.59,7.22 13.73,4.71 17.73,-8.66 49,-35.88 40.37,-76.94 -0.99,-4.82 -5.27,-8.16 -10,-8.16"
         style="fill:#151110;fill-opacity:1;fill-rule:nonzero;stroke:none"
         id="path96" />
      <path
         d="m 3230.85,1484.75 c -6.67,0 -12.3,5.64 -12.3,12.32 0,2.71 1.1,5.32 3.02,7.25 1.92,1.91 6.56,4.02 9.28,4.02 4.76,0 8.08,-2.82 9.29,-4.02 1.93,-1.93 3.01,-4.54 3.01,-7.25 0,-6.68 -5.63,-12.32 -12.3,-12.32"
         style="fill:#151110;fill-opacity:1;fill-rule:nonzero;stroke:none"
         id="path98" />
      <path
         d="m 3230.45,1491.94 8.62,-1.05 c 0,4.86 -3.8,8.24 -7.19,8.24 -4.61,0 -8.22,-3.62 -8.22,-8.24 h 6.97 z m 1.43,-13.32 c -7.47,0 -13.33,5.39 -13.33,12.27 0,1.91 0.66,11.31 13.33,11.31 5.65,0 12.28,-5.62 12.28,-11.31 0,-6.65 -5.62,-12.27 -12.28,-12.27"
         style="fill:#151110;fill-opacity:1;fill-rule:nonzero;stroke:none"
         id="path100" />
      <path
         d="m 3231.88,1491.94 c -3.38,0 -7.16,-3.37 -7.16,-8.21 -0.02,-9.4 14.33,-9.36 14.35,0 0,4.84 -3.8,8.21 -7.19,8.21 z m 0,-20.51 c -7.47,0 -13.33,5.4 -13.33,12.3 0,6.9 5.86,12.31 13.33,12.31 7.49,0 13.34,-5.41 13.34,-12.31 0,-6.9 -5.85,-12.3 -13.34,-12.3"
         style="fill:#151110;fill-opacity:1;fill-rule:nonzero;stroke:none"
         id="path102" />
      <path
         d="m 3230.87,1488.86 c -0.56,0 -1.12,0.07 -1.7,0.14 -5.59,0.95 -9.37,6.22 -8.43,11.82 l 1.02,6.13 c 0.92,5.59 6.07,9.37 11.81,8.44 5.57,-0.94 9.35,-6.23 8.43,-11.82 l -1.03,-6.13 c -0.83,-5.01 -5.17,-8.58 -10.1,-8.58"
         style="fill:#151110;fill-opacity:1;fill-rule:nonzero;stroke:none"
         id="path104" />
      <path
         d="m 3145.72,1038.8 175.41,-2.03 c 0.51,0 1.03,0.51 1.03,1 z m 175.41,-22.54 h -175.41 c -11.87,0 -21.55,9.66 -21.55,21.51 0,11.89 9.68,21.56 21.55,21.56 h 175.41 c 11.87,0 21.55,-9.67 21.55,-21.56 0,-11.85 -9.68,-21.51 -21.55,-21.51"
         style="fill:#151110;fill-opacity:1;fill-rule:nonzero;stroke:none"
         id="path106" />
      <path
         d="m 3135.45,818.379 c -1.53,0 -2.06,-0.539 -2.06,-2.02 0,-1.531 0.53,-2.07 2.06,-2.07 h 195.91 c 1.55,0 2.06,0.52 2.06,2.07 0,1.52 -0.51,2.02 -2.06,2.02 z m 195.91,-24.59 h -195.91 c -12.86,0 -22.57,9.691 -22.57,22.57 0,12.821 9.71,22.532 22.57,22.532 h 195.91 c 12.86,0 22.57,-9.711 22.57,-22.532 0,-12.879 -9.71,-22.57 -22.57,-22.57"
         style="fill:#151110;fill-opacity:1;fill-rule:nonzero;stroke:none"
         id="path108" />
      <path
         d="m 3093.41,668.73 c -35.08,0 -63.62,28.051 -63.62,62.532 0,5.668 4.59,10.25 10.25,10.25 5.66,0 10.25,-4.582 10.25,-10.25 0,-23.172 19.34,-42.032 43.12,-42.032 22.05,0 39.38,17.731 42.13,43.122 l 3.04,33.668 c 0.51,5.66 5.79,10.07 11.11,9.289 5.65,-0.52 9.8,-5.489 9.29,-11.129 l -3.06,-33.828 c -3.85,-35.782 -30.13,-61.622 -62.51,-61.622"
         style="fill:#151110;fill-opacity:1;fill-rule:nonzero;stroke:none"
         id="path110" />
      <path
         d="m 2411.24,742.531 c -35.63,0 -64.63,28.969 -64.63,64.571 0,5.66 4.59,10.25 10.26,10.25 5.66,0 10.25,-4.59 10.25,-10.25 0,-23.891 20.2,-44.071 44.12,-44.071 25.93,0 41.83,22.707 44.15,45.129 l 3.06,34.711 c 0.49,5.649 5.95,9.789 11.12,9.309 5.64,-0.5 9.81,-5.489 9.32,-11.11 l -3.08,-34.851 c -3.84,-36.969 -30.98,-63.688 -64.57,-63.688"
         style="fill:#151110;fill-opacity:1;fill-rule:nonzero;stroke:none"
         id="path112" />
      <path
         d="m 3418.57,689.211 c -55.52,0 -100.06,44.25 -103.57,102.918 l -6.15,98.422 c -0.36,5.648 3.93,10.519 9.6,10.871 5.02,0.238 10.5,-3.942 10.87,-9.602 l 6.15,-98.441 c 2.86,-47.707 38.58,-83.688 83.1,-83.688 46.39,0 84.14,37.27 84.14,83.079 v 104.57 c 0,5.66 4.59,10.25 10.25,10.25 5.66,0 10.26,-4.59 10.26,-10.25 V 792.77 c 0,-57.122 -46.95,-103.559 -104.65,-103.559"
         style="fill:#151110;fill-opacity:1;fill-rule:nonzero;stroke:none"
         id="path114" />
      <path
         d="m 2075.78,497.5 c -57.13,0 -103.6,46.922 -103.6,104.59 v 516.69 c 0,5.65 4.59,10.26 10.26,10.26 5.66,0 10.25,-4.61 10.25,-10.26 V 602.09 c 0,-45.602 38.05,-84.078 83.09,-84.078 45.46,0 83.2,37.816 84.13,84.289 l 2.04,87.16 c 0.14,5.578 4.71,10.019 10.26,10.019 0.08,0 0.16,0 0.25,0 5.64,-0.14 10.13,-4.851 10.01,-10.519 l -2.05,-87.133 c -1.17,-57.5 -48.1,-104.328 -104.64,-104.328"
         style="fill:#151110;fill-opacity:1;fill-rule:nonzero;stroke:none"
         id="path116" />
      <path
         d="m 1792.68,992.66 c -5.67,0 -10.26,4.59 -10.26,10.26 v 157.89 c 0,57.64 46.48,104.57 103.6,104.57 57.52,0 103.48,-45.85 104.63,-104.39 l 2.04,-87.09 c 0.12,-5.65 -4.36,-10.36 -10.01,-10.5 -0.09,0 -0.18,0 -0.24,0 -5.57,0 -10.12,4.44 -10.26,10.01 l -2.04,87.15 c -0.92,47.3 -37.87,84.31 -84.12,84.31 -45.82,0 -83.09,-37.73 -83.09,-84.06 v -157.89 c 0,-5.67 -4.6,-10.26 -10.25,-10.26"
         style="fill:#151110;fill-opacity:1;fill-rule:nonzero;stroke:none"
         id="path118" />
      <path
         d="m 3511.91,798.922 c -5.67,0 -10.26,4.59 -10.26,10.258 v 123.019 c 0,56.672 47.91,104.571 104.64,104.571 56.55,0 103.5,-46.821 104.65,-104.36 0.1,-5.672 -4.4,-10.332 -10.05,-10.469 -6.12,-0.793 -10.34,4.399 -10.47,10.059 -0.91,46.461 -38.66,84.26 -84.13,84.26 -45.61,0 -84.13,-38.471 -84.13,-84.061 V 809.18 c 0,-5.668 -4.59,-10.258 -10.25,-10.258"
         style="fill:#151110;fill-opacity:1;fill-rule:nonzero;stroke:none"
         id="path120" />
      <path
         d="m 4005.35,829.672 h -210.32 c -57.67,0 -104.61,46.906 -104.61,104.558 0,5.668 4.59,10.27 10.25,10.27 5.68,0 10.27,-4.602 10.27,-10.27 0,-46.339 37.73,-84.039 84.09,-84.039 h 210.32 c 5.64,0 10.23,-4.613 10.23,-10.261 0,-5.68 -4.59,-10.258 -10.23,-10.258"
         style="fill:#151110;fill-opacity:1;fill-rule:nonzero;stroke:none"
         id="path122" />
      <path
         d="m 1698.29,913.73 h -517.01 c -5.65,0 -10.24,4.579 -10.24,10.239 0,5.652 4.59,10.25 10.24,10.25 h 517.01 c 46.38,0 84.13,37.711 84.13,84.061 0,5.67 4.59,10.26 10.26,10.26 5.65,0 10.25,-4.59 10.25,-10.26 0,-57.651 -46.95,-104.55 -104.64,-104.55"
         style="fill:#151110;fill-opacity:1;fill-rule:nonzero;stroke:none"
         id="path124" />
    </g>
  </g>
</svg>
